<svg id="Слой_1" data-name="Слой 1" xmlns="http://www.w3.org/2000/svg" viewBox="0 0 35.19 5.78">
  <title>arrow-right</title>
  <rect y="2.26" width="35.19" height="1.25" rx="0.62" ry="0.62" style="fill: #c9c9c9"/>
  <path d="M1006,1012.45h5.77a.62.62,0,0,1,.62.62v0a.63.63,0,0,1-.63.63H1006a.62.62,0,0,1-.62-.62v0A.62.62,0,0,1,1006,1012.45Z" transform="translate(-498.88 -1325.83) rotate(23.09)" style="fill: #c9c9c9"/>
  <path d="M1006,1014.72h5.77a.62.62,0,0,1,.62.62v0a.62.62,0,0,1-.62.62H1006a.63.63,0,0,1-.63-.63v0a.62.62,0,0,1,.62-.62Z" transform="translate(-1294.37 -534.31) rotate(-23.09)" style="fill: #c9c9c9"/>
</svg>
