<svg id="Слой_1" data-name="Слой 1" xmlns="http://www.w3.org/2000/svg" viewBox="0 0 35.19 5.78">
  <title>arrow-left</title>
  <rect x="977" y="1013.58" width="35.19" height="1.25" rx="0.62" ry="0.62" transform="translate(1012.19 1017.1) rotate(-180)" style="fill: #c9c9c9"/>
  <path d="M977.39,1012.45h5.77a.62.62,0,0,1,.62.62v0a.63.63,0,0,1-.63.63h-5.77a.62.62,0,0,1-.62-.62v0A.62.62,0,0,1,977.39,1012.45Z" transform="translate(1302.33 549.24) rotate(156.91)" style="fill: #c9c9c9"/>
  <path d="M977.39,1014.72h5.77a.62.62,0,0,1,.62.62v0a.62.62,0,0,1-.62.62h-5.77a.63.63,0,0,1-.63-.63v0A.62.62,0,0,1,977.39,1014.72Z" transform="translate(506.84 1322.46) rotate(-156.91)" style="fill: #c9c9c9"/>
</svg>
