<svg xmlns="http://www.w3.org/2000/svg" width="235" height="53" viewBox="0 0 235 53">
  <defs>
    <style>
      .cls-1 {
        fill: #222;
        fill-rule: evenodd;
      }
    </style>
  </defs>
  <path id="Фигура_2" data-name="Фигура 2" class="cls-1" d="M177.9,70.637v-8.6a11.149,11.149,0,0,1,2.01-.136,2.822,2.822,0,0,1,2.329.764H182.3V60.389h-0.059a2.051,2.051,0,0,1-.93.1H175v0.059c1.009,0.372.893,1.806,0.893,2.7v7.386c0,0.876.116,2.328-.893,2.683v0.058h3.727V73.32c-0.985-.377-0.827-1.807-0.827-2.683h0Zm12.817-2.1h4.969l1.064,2.76c0.533,1.375.692,1.587-.276,2.022v0.058h4.046V73.32c-1.124-.571-1.482-1.667-1.933-2.785l-4.1-10.046h-3.12v0.059c0.947,0.3.575,1.114,0.3,1.82l-3.29,8.167c-0.438,1.118-.773,2.215-1.915,2.785v0.058h3.628V73.32c-0.947-.355-0.808-0.921-0.394-2.022l1.024-2.76h0Zm2.467-6.383,1.934,4.935h-3.887l1.953-4.935h0ZM206.508,70.4a2.275,2.275,0,0,1-2.4,1.645l0.765,1.63c1.441,0,2.469-.983,3.3-3.275L211,62.644l3.1,8.676c0.49,1.37.468,1.644-.278,2v0.058h3.669V73.32a5.872,5.872,0,0,1-1.538-2.8L212.977,62.5a6.871,6.871,0,0,1-.529-2.017H209.33v0.059c0.946,0.3.57,1.1,0.3,1.806L206.508,70.4h0Zm19.4,1.333V67.09h1.464a1.9,1.9,0,0,1,1.751.549h0.059v-2.08h-0.059a1.959,1.959,0,0,1-.867.122H225.91V62.035a11.2,11.2,0,0,1,2.015-.136,2.774,2.774,0,0,1,2.328.786h0.056v-2.3h-0.056a2.068,2.068,0,0,1-.928.1h-6.308v0.059c1,0.372.881,1.806,0.881,2.7v7.386c0,0.876.123,2.328-.881,2.683v0.058h8.22l0.888-2.566H232.06a4.918,4.918,0,0,1-3.647,1.155l-2.5-.234h0Zm17.176-11.244H238.3v0.059c0.991,0.39.865,1.82,0.865,2.7v7.386c0,0.876.126,2.328-.887,2.683v0.058H242.2V73.32c-1.046-.592-1.028-1.372-1.028-2.468V62.012a8.17,8.17,0,0,1,1.38-.114c1.575,0,2.805.683,2.805,2.41,0,1.883-1.837,2.917-3.535,3.016a3.375,3.375,0,0,0,1.44.275c2.231,0,4.339-1.43,4.339-3.682,0-2.193-1.954-3.429-4.517-3.429h0Zm13.471,11.244V67.09h1.456a1.906,1.906,0,0,1,1.755.549h0.061v-2.08h-0.061a1.955,1.955,0,0,1-.868.122h-2.343V62.035a11.138,11.138,0,0,1,2.009-.136,2.757,2.757,0,0,1,2.326.786h0.059v-2.3h-0.059a2.041,2.041,0,0,1-.927.1h-6.309v0.059c1,0.372.888,1.806,0.888,2.7v7.386c0,0.876.117,2.328-.888,2.683v0.058h8.223l0.888-2.566H262.71a4.939,4.939,0,0,1-3.651,1.155l-2.5-.234h0Zm16.781-11.244c-2.64,0-4.088,1.37-4.088,3.155a3.844,3.844,0,0,0,3.139,3.447l-2.838,3.547a9.615,9.615,0,0,1-3.2,2.683v0.058l1.813,0.059a2.673,2.673,0,0,0,2.365-1.038s1.446-1.745,2.331-2.958c0.77-1.057,1.814-2.764,1.814-2.764-1.579-.234-3.407-0.957-3.407-2.8a2.256,2.256,0,0,1,2.538-2.176,11.1,11.1,0,0,1,1.341.157v8.779c0,0.9.121,2.328-.885,2.683v0.058h3.764V73.32c-1-.355-0.867-1.807-0.867-2.683V63.251c0-.9-0.135-2.333.867-2.7V60.488h-4.69Zm20.01,2.742v7.388c0,0.9.123,2.325-.872,2.7v0.058h3.256a9.963,9.963,0,0,0,4.417-.607,3.941,3.941,0,0,0,2.367-3.431c0-1.919-1.437-3.095-3.212-3.469a2.736,2.736,0,0,0,1.968-2.543c0-1.745-1.515-2.841-4.119-2.841h-4.677v0.059c1.009,0.372.872,1.806,0.872,2.683h0Zm3.731,8.737-1.719-.16V66.972l1.376-.08c1.737-.1,3.593.724,3.593,2.629,0,1.857-1.641,2.6-3.25,2.445h0Zm-1.072-6.285H295.36V61.84l1.32-.139a2.077,2.077,0,0,1,2.447,1.941c0,1.605-1.838,2.039-3.12,2.039h0Zm17.786-5.194H309v0.059c0.986,0.39.872,1.82,0.872,2.7v7.386c0,0.876.114,2.328-.885,2.683v0.058h3.918V73.32c-1.043-.592-1.023-1.372-1.023-2.468V62.012a8.162,8.162,0,0,1,1.383-.114c1.576,0,2.792.683,2.792,2.41,0,1.883-1.83,2.917-3.524,3.016a3.355,3.355,0,0,0,1.44.275c2.226,0,4.335-1.43,4.335-3.682,0-2.193-1.952-3.429-4.516-3.429h0Zm13.276,11.244V67.09h1.456a1.9,1.9,0,0,1,1.753.549h0.061v-2.08h-0.061a1.944,1.944,0,0,1-.864.122h-2.345V62.035a11.081,11.081,0,0,1,2-.136,2.769,2.769,0,0,1,2.331.786h0.061v-2.3h-0.061a2.061,2.061,0,0,1-.93.1h-6.308v0.059c1,0.372.888,1.806,0.888,2.7v7.386c0,0.876.116,2.328-.888,2.683v0.058h8.224l0.888-2.566h-0.061a4.932,4.932,0,0,1-3.648,1.155l-2.5-.234h0Zm23.856-10.008-3.272,8.3-3.709-8.637a2.289,2.289,0,0,1-.278-0.877V60.488h-3.448v0.059a1.449,1.449,0,0,1,.611,1.82l-1.127,8.21A4,4,0,0,1,338.6,73.32v0.058h3.221V73.32c-0.928-.414-0.792-1.276-0.633-2.468l1.123-8.422,3.749,8.83a4.734,4.734,0,0,0,1.735,2.374l4.417-11.227,1.121,9.443a1.3,1.3,0,0,1-.81,1.469v0.058h3.808V73.32a2.324,2.324,0,0,1-1-2L354.019,61.7a1.118,1.118,0,0,1,.617-1.154V60.488h-3.418V60.51a3.452,3.452,0,0,1-.293,1.213h0ZM365.4,71.732V67.09h1.458a1.917,1.917,0,0,1,1.76.549h0.054v-2.08h-0.054a1.975,1.975,0,0,1-.87.122H365.4V62.035a11.13,11.13,0,0,1,2.01-.136,2.771,2.771,0,0,1,2.329.786H369.8v-2.3h-0.058a2.059,2.059,0,0,1-.927.1H362.5v0.059c1,0.372.885,1.806,0.885,2.7v7.386c0,0.876.119,2.328-.885,2.683v0.058h8.217l0.889-2.566h-0.058a4.928,4.928,0,0,1-3.645,1.155l-2.508-.234h0Zm14.826-4.642h7.121v3.547c0,0.876.134,2.306-.868,2.683v0.058h3.762V73.32c-1-.377-0.884-1.807-0.884-2.683V63.23c0-.877-0.112-2.311.884-2.683V60.488h-3.762v0.059c1,0.372.868,1.806,0.868,2.7v2.43h-7.121v-2.43c0-.9-0.113-2.333.873-2.7V60.488h-3.753v0.059c1.007,0.372.872,1.806,0.872,2.683v7.407c0,0.876.122,2.306-.872,2.683v0.058H381.1V73.32c-0.986-.377-0.873-1.807-0.873-2.683V67.09ZM407.1,70.834a2.411,2.411,0,0,1-1.185,2.486v0.058H410V73.32c-1.042-.612-0.886-1.513-0.886-2.486v-7.82c0-.706-0.156-1.88.869-2.467V60.488H407.1V60.51a1.306,1.306,0,0,1-.3.489l-0.271.387-6.63,9.052V63.014c0-1.1-.022-1.88,1.027-2.467V60.488h-4.061v0.059c1.019,0.587,1.019,1.37,1.019,2.467V74a5.418,5.418,0,0,0,2.882-2.234l6.331-8.6v7.663h0ZM283.532,41.356l-0.055-.138-0.056-.142-0.057-.143-0.056-.138-0.052-.139-0.058-.144-0.111-.28-0.052-.143-0.054-.139-0.057-.139-0.057-.139-0.053-.138-0.06-.142-0.051-.144-0.058-.138-0.055-.139-0.056-.14-0.053-.139-0.056-.138-0.055-.139-0.056-.14-0.056-.135-0.089-.211-0.133,0-0.048,0h-0.05l-0.051.006h-0.1l-0.055,0H281.57l-0.053,0h-0.106l-0.046-.006-0.054,0-0.241-.014,0.124,0.241,0.038,0.081,0.04,0.091,0.047,0.1,0.052,0.11,0.055,0.124L281.48,38.8l0.072,0.143,0.059,0.149,0.071,0.153,0.068,0.161,0.074,0.173,0.073,0.177,0.08,0.183,0.082,0.183,0.08,0.192,0.086,0.193,0.084,0.2,0.085,0.193,0.087,0.2,0.09,0.2,0.086,0.205,0.091,0.2,0.091,0.2,0.089,0.2,0.087,0.2,0.094,0.2L283.2,42.7l0.086,0.185,0.086,0.192,0.089,0.178,0.116,0.246,0.126-.012,0.049-.007H283.8l0.044,0,0.05,0h0.046l0.05,0.007,0.136,0.014,0.056-.175,0.038-.105,0.048-.123,0.048-.138,0.063-.148,0.064-.166,0.073-.174,0.071-.183,0.081-.2,0.083-.2,0.09-.2,0.087-.216,0.091-.212,0.088-.219,0.1-.219,0.091-.22,0.1-.215,0.091-.217,0.09-.216,0.092-.205,0.091-.2,0.081-.2,0.081-.181L285.993,39l0.073-.169,0.066-.15,0.063-.139,0.06-.123,0.049-.109,0.041-.088,0.036-.075,0.122-.237-0.24.023-0.038.009-0.033,0-0.04,0-0.038,0-0.025,0h-0.128l-0.036,0-0.035,0-0.034,0-0.035,0-0.038-.009-0.117-.011-0.088.205-0.048.142-0.053.136-0.051.138-0.05.139-0.048.136-0.051.139-0.053.138-0.051.14-0.046.135-0.053.136-0.055.137-0.05.14-0.053.135-0.053.135-0.051.135-0.05.136-0.056.137-0.053.137-0.056.135-0.053.135L284.489,41l-0.056.138-0.056.131-0.06.135-0.054.137-0.06.132-0.057.134-0.058.132-0.06.139-0.061.132-0.053.109-0.045-.116-0.058-.147-0.056-.139-0.058-.144-0.055-.137-0.056-.139-0.054-.144h0Zm3.609-3.438V43.5l0.163-.012,0.041,0,0.041,0,0.046,0,0.044,0,0.039,0,0.042,0h0.074l0.041,0,0.04,0,0.04,0,0.044,0,0.043,0,0.047,0,0.167,0.012V37.921l-0.167.011-0.047,0-0.043.009-0.044,0-0.04,0-0.04,0h-0.157l-0.039,0-0.044,0-0.046,0-0.041-.009-0.045,0-0.159-.014h0Zm1.049-11.044v5.575l0.167-.011,0.043,0,0.041-.008,0.039,0,0.045,0,0.045,0h0.158l0.035,0,0.042,0,0.04,0,0.048,0.008,0.048,0,0.165,0.011V26.873l-0.165.013h-0.048l-0.043.006-0.045,0-0.039,0-0.038,0-0.042,0h-0.077l-0.042,0-0.042,0-0.045,0-0.042,0-0.038-.006h-0.043l-0.167-.013h0Zm-2.308,0v5.575l0.162-.011,0.045,0,0.043-.008,0.045,0,0.041,0,0.045,0h0.159l0.035,0,0.041,0,0.048,0,0.042,0.008,0.047,0,0.162,0.011V26.873l-0.162.013h-0.047l-0.042.006-0.048,0-0.041,0-0.035,0-0.041,0H286.3l-0.04,0-0.045,0-0.041,0-0.045,0-0.043-.006h-0.045l-0.162-.013h0Zm-5.2,5.037L280.625,32l-0.06.085-0.063.086-0.191.283,0.306-.022,0.069,0,0.07,0H280.9l0.068,0,0.069,0,0.149,0.012,0.078-.144,0.041-.076,0.04-.072,0.041-.077L281.423,32l0.044-.077,0.043-.077,0.047-.073L281.6,31.7l0.041-.077,0.046-.075,0.04-.071,0.045-.077,0.042-.074,0.047-.073,0.041-.073,0.045-.075,0.046-.074,0.043-.074,0.048-.073,0.042-.069,0.046-.073,0.048-.074,0.043-.073,0.045-.074,0.046-.068,0.045-.073,0.044-.073,0.047-.069,0.049-.07,0.045,0.065,0.043,0.075,0.041,0.073,0.048,0.07,0.043,0.071,0.043,0.074,0.046,0.069,0.044,0.074,0.041,0.071,0.044,0.074,0.043,0.073,0.042,0.074L283.1,31.1l0.038,0.072,0.043,0.073,0.044,0.073,0.042,0.077,0.041,0.074,0.042,0.075,0.041,0.075,0.041,0.073,0.045,0.076,0.037,0.077,0.039,0.077L283.6,32l0.039,0.074,0.042,0.077,0.039,0.078,0.04,0.073,0.076,0.144,0.124-.005,0.06,0h0.054l0.058,0h0.063l0.053,0h0.182l0.058,0H284.6l0.058,0h0.056l0.06,0,0.273,0.011-1.906-3.061,0.348-.515,1.2-1.659,0.018-.018,0.01-.014,0.018-.022,0.015-.018,0.013-.02,0.022-.014,0.01-.018,0.228-.229-0.369.025H284.58l-0.069.006h-0.138l-0.067-.006h-0.071l-0.148-.01-0.069.132-0.038.07-0.041.066-0.032.069-0.045.065-0.039.066-0.042.069-0.039.066-0.041.065-0.042.071-0.04.06-0.041.066-0.042.062-0.045.07-0.042.061L283.408,28l-0.044.065-0.038.063-0.046.061-0.043.066-0.04.063-0.046.068-0.043.063-0.041.063-0.04.061-0.04.066-0.046.063-0.036.066-0.047.062-0.019.038-0.74-1.258-0.02-.044-0.031-.039-0.02-.045L282,27.437l-0.023-.04-0.027-.044-0.023-.039-0.03-.045-0.021-.041-0.027-.043-0.025-.044L281.8,27.1l-0.021-.048-0.028-.037-0.027-.043-0.054-.095-0.126.005h-0.165l-0.06.006h-0.352l-0.055-.006h-0.171l-0.28-.017,0.178,0.263,0.06,0.083,0.049,0.084,0.053,0.08,0.056,0.084,0.055,0.08,0.051,0.085,0.048,0.081,0.055,0.084,0.056,0.08,0.05,0.085,0.051,0.083,0.053,0.08,0.053,0.086,0.051,0.081,0.053,0.083,0.051,0.085,0.052,0.08,0.054,0.083,0.05,0.081,0.1,0.16,0.058,0.092,0.053,0.085,0.051,0.08L281.95,29.2l0.055,0.086,0.048,0.083,0.054,0.08,0.048,0.085,0.057,0.083,0.013,0.022-0.834,1.243-0.056.085-0.061.087-0.055.085-0.061.087-0.057.08-0.059.089-0.061.087-0.058.083-0.06.087-0.059.083-0.06.088-0.061.086h0ZM275.2,25.177H295l1.172-1.162H274.023V46.01l1.175-1.165V25.177Zm23.525,23.375V22.173l-2.2,2.189v22H274.382l-2.206,2.186h26.547Zm-22.67-3.817h18.825V35.611H276.053v9.124Zm0-9.961h18.825V26.032H276.053v8.741Zm23.513-13.779v28.4H270.977v-28.4h28.589Z" transform="translate(-175 -21)"/>
</svg>
