<svg id="Capa_1" data-name="Capa 1" xmlns="http://www.w3.org/2000/svg" viewBox="0 0 423.42 415.35">
  <title>cart-2</title>
  <g>
    <path d="M457.14,188.08H344.82V138.45a88.82,88.82,0,1,0-177.64,0v49.63H54.86c-3.14,0-6.27,0-7.84,2.61a8.89,8.89,0,0,0-2.61,7.84l39.18,214.2A63.75,63.75,0,0,0,145.24,465H366.76a64.27,64.27,0,0,0,61.65-52.77l39.18-213.68a8.89,8.89,0,0,0-2.61-7.84A9.43,9.43,0,0,0,457.14,188.08ZM188.08,138.45a67.92,67.92,0,0,1,135.84,0v49.63H188.08ZM407.51,409.6a41.79,41.79,0,0,1-40.75,34.48H145.24a41.79,41.79,0,0,1-40.75-34.48L67.4,209H444.6Z" transform="translate(-44.29 -49.63)" style="fill: #c89979"/>
    <path d="M334.37,310.86a10.45,10.45,0,0,0,10.45-10.45V269.06a10.45,10.45,0,0,0-20.9,0v31.35A10.45,10.45,0,0,0,334.37,310.86Z" transform="translate(-44.29 -49.63)" style="fill: #c89979"/>
    <path d="M177.63,310.86a10.45,10.45,0,0,0,10.45-10.45V269.06a10.45,10.45,0,0,0-20.9,0v31.35A10.45,10.45,0,0,0,177.63,310.86Z" transform="translate(-44.29 -49.63)" style="fill: #c89979"/>
  </g>
</svg>
