<svg xmlns="http://www.w3.org/2000/svg" width="20" height="20" viewBox="0 0 20 20">
  <defs>
    <style>
      .cls-1 {
        fill: #5d5d5d;
        fill-rule: evenodd;
      }
    </style>
  </defs>
  <path id="Фигура_8" data-name="Фигура 8" class="cls-1" d="M1531.97,717h-13.94a3.035,3.035,0,0,0-3.03,3.032v13.936a3.035,3.035,0,0,0,3.03,3.032h6.58v-7.3h-2.31v-2.021h2.31v-3.032a2.745,2.745,0,0,1,2.74-2.743h2.74v2.022h-2.16a1.3,1.3,0,0,0-1.3,1.3v2.454h3.33l-0.34,2.021h-2.99V737h5.34a3.035,3.035,0,0,0,3.03-3.032V720.032A3.035,3.035,0,0,0,1531.97,717Zm-0.3,9.239h-3.6v-0.866h3.46v-4.908h-4.18a4.193,4.193,0,0,0-4.19,4.186v1.588h-2.31v4.909h2.31v4.408h-5.13a1.6,1.6,0,0,1-1.59-1.588V720.032a1.6,1.6,0,0,1,1.59-1.588h13.94a1.6,1.6,0,0,1,1.59,1.588v13.936a1.6,1.6,0,0,1-1.59,1.588h-3.9v-4.408h2.78Z" transform="translate(-1515 -717)"/>
</svg>
