<svg xmlns="http://www.w3.org/2000/svg" width="27" height="20" viewBox="0 0 27 20">
  <defs>
    <style>
      .cls-1 {
        fill: #c89979;
        fill-rule: evenodd;
      }
    </style>
  </defs>
  <path id="Фигура_1" data-name="Фигура 1" class="cls-1" d="M28.875,41.154H16.125a1.154,1.154,0,0,1,0-2.308h12.75a1.154,1.154,0,0,1,0,2.308h0Zm0,0,12-8.846H16.125a1.154,1.154,0,0,1,0-2.308h24.75a1.154,1.154,0,0,1,0,2.308h0Zm0,0M35.875,50H16.125a1.154,1.154,0,0,1,0-2.308h19.75a1.154,1.154,0,0,1,0,2.308h0Zm0,0" transform="translate(-15 -30)"/>
</svg>
