<svg xmlns="http://www.w3.org/2000/svg" width="20" height="20" viewBox="0 0 20 20">
  <defs>
    <style>
      .cls-1 {
        fill: #5d5d5d;
        fill-rule: evenodd;
      }
    </style>
  </defs>
  <path id="Фигура_7" data-name="Фигура 7" class="cls-1" d="M1493.19,737h-8.38a5.819,5.819,0,0,1-5.81-5.81v-8.38a5.819,5.819,0,0,1,5.81-5.81h8.38a5.819,5.819,0,0,1,5.81,5.81v8.38A5.819,5.819,0,0,1,1493.19,737Zm-8.38-18.438a4.256,4.256,0,0,0-4.25,4.248v8.38a4.255,4.255,0,0,0,4.25,4.247h8.38a4.255,4.255,0,0,0,4.25-4.247v-8.38a4.256,4.256,0,0,0-4.25-4.248h-8.38Zm4.19,13.829a5.391,5.391,0,1,1,5.39-5.391A5.4,5.4,0,0,1,1489,732.391Zm0-9.219a3.828,3.828,0,1,0,3.83,3.828A3.834,3.834,0,0,0,1489,723.172Zm5.47-2.422a0.781,0.781,0,1,1-.78.781A0.781,0.781,0,0,1,1494.47,720.75Z" transform="translate(-1479 -717)"/>
</svg>
