<svg xmlns="http://www.w3.org/2000/svg" width="13" height="19" viewBox="0 0 13 19">
  <defs>
    <style>
      .cls-1 {
        fill: #c89979;
        fill-rule: evenodd;
      }
    </style>
  </defs>
  <path id="Фигура_1" data-name="Фигура 1" class="cls-1" d="M1318.5,37a6.6,6.6,0,0,0-6.5,6.68,6.849,6.849,0,0,0,.97,3.513l5.16,8.545a0.536,0.536,0,0,0,.46.263h0a0.528,0.528,0,0,0,.46-0.271l5.03-8.627a6.813,6.813,0,0,0,.92-3.422A6.6,6.6,0,0,0,1318.5,37Zm4.65,9.53-4.57,7.844-4.69-7.768a5.654,5.654,0,0,1-.81-2.926,5.422,5.422,0,1,1,10.84,0A5.673,5.673,0,0,1,1323.15,46.53Zm-4.65-6.191a3.341,3.341,0,1,0,3.25,3.34A3.3,3.3,0,0,0,1318.5,40.34Zm0,5.574a2.235,2.235,0,1,1,2.17-2.234A2.2,2.2,0,0,1,1318.5,45.914Z" transform="translate(-1312 -37)"/>
</svg>
