<svg xmlns="http://www.w3.org/2000/svg" width="12" height="17" viewBox="0 0 12 17">
  <defs>
    <style>
      .cls-1 {
        fill: #e9e0da;
        fill-rule: evenodd;
      }
    </style>
  </defs>
  <path id="Фигура_1" data-name="Фигура 1" class="cls-1" d="M240,88a5.973,5.973,0,0,0-5.1,9.12l4.762,7.645a0.5,0.5,0,0,0,.425.236h0a0.5,0.5,0,0,0,.425-0.242l4.642-7.72A5.974,5.974,0,0,0,240,88Zm4.3,8.527-4.22,7.018-4.33-6.951A5,5,0,1,1,244.3,96.527ZM240,90.988a2.988,2.988,0,1,0,3,2.988A3,3,0,0,0,240,90.988Zm0,4.987a2,2,0,1,1,2-2A2,2,0,0,1,240,95.975Z" transform="translate(-234 -88)"/>
</svg>
