<svg xmlns="http://www.w3.org/2000/svg" width="17" height="18" viewBox="0 0 17 18">
  <defs>
    <style>
      .cls-1 {
        fill: #e9e0da;
        fill-rule: evenodd;
      }
    </style>
  </defs>
  <path id="Фигура_3" data-name="Фигура 3" class="cls-1" d="M290.167,97a0.413,0.413,0,0,1-.1.277,0.331,0.331,0,0,1-.5,0l-3.542-3.913a0.421,0.421,0,0,1,0-.553,0.331,0.331,0,0,1,.5,0l3.542,3.913A0.413,0.413,0,0,1,290.167,97Zm0,0a0.413,0.413,0,0,1-.1.277l-3.542,3.912a0.329,0.329,0,0,1-.5,0,0.421,0.421,0,0,1,0-.553l3.542-3.913a0.331,0.331,0,0,1,.5,0A0.413,0.413,0,0,1,290.167,97ZM293,89.174v15.669A1.114,1.114,0,0,1,291.937,106H288.4a0.393,0.393,0,0,1,0-.783h3.541a0.365,0.365,0,0,0,.355-0.374V89.174a0.38,0.38,0,0,0-.355-0.391H288.4a0.393,0.393,0,0,1,0-.783h3.541A1.124,1.124,0,0,1,293,89.174ZM290.167,97a0.374,0.374,0,0,1-.355.391H276.354a0.393,0.393,0,0,1,0-.782h13.458A0.374,0.374,0,0,1,290.167,97Z" transform="translate(-276 -88)"/>
</svg>
