<svg id="Capa_1" data-name="Capa 1" xmlns="http://www.w3.org/2000/svg" viewBox="0 0 511.98 512">
  <title>tel-footer</title>
  <path d="M498.83,377.63,435.18,314a45.07,45.07,0,0,0-63.65,0L342.6,342.92a34.14,34.14,0,0,1-48.22,0L169,217.41a34.08,34.08,0,0,1,0-48.21l28.93-28.94a45,45,0,0,0,0-63.66L134.27,13.17a45.05,45.05,0,0,0-63.61-.05l-23.19,23c-63.28,63.28-63.28,166.24,0,229.52l198.69,198.8a162.21,162.21,0,0,0,229.52,0l23.15-23.15A45.06,45.06,0,0,0,498.83,377.63ZM414,335.2l63.65,63.65a15,15,0,0,1,0,21.22L467,430.67l-84.86-84.86,10.61-10.61A15,15,0,0,1,414,335.2ZM113.07,34.4,176.7,97.83a15,15,0,0,1,0,21.22l-10.61,10.61L81.28,44.85,91.83,34.38A15,15,0,0,1,113.07,34.4ZM267.38,443.21,68.69,244.42a131.91,131.91,0,0,1-8.28-178L145,151a64,64,0,0,0,2.78,87.66l125.4,125.5h0a64,64,0,0,0,87.66,2.79l84.57,84.57A131.64,131.64,0,0,1,267.38,443.21Z" transform="translate(-0.01 0)" style="fill: #545454"/>
</svg>
