<svg xmlns="http://www.w3.org/2000/svg" width="27" height="27" viewBox="0 0 27 27">
  <defs>
    <style>
      .cls-1 {
        fill: #c89979;
        fill-rule: evenodd;
      }
    </style>
  </defs>
  <path id="Фигура_1" data-name="Фигура 1" class="cls-1" d="M1617.47,374.216a1.059,1.059,0,0,1,0,1.492l-7.08,7.076a1.054,1.054,0,0,1-1.49,0l-3.37-3.369a1.054,1.054,0,0,1,1.49-1.491l2.63,2.622,6.33-6.33a1.054,1.054,0,0,1,1.49,0h0ZM1625,378.5a13.5,13.5,0,1,1-13.5-13.5,13.493,13.493,0,0,1,13.5,13.5h0Zm-2.11,0a11.39,11.39,0,1,0-11.39,11.39,11.381,11.381,0,0,0,11.39-11.39h0Zm0,0" transform="translate(-1598 -365)"/>
</svg>
